<svg xmlns="http://www.w3.org/2000/svg" xmlns:xlink="http://www.w3.org/1999/xlink" xml:space="preserve" viewBox="0 0 264.349 81.339">
  <defs>
    <path id="reuse-0" d="M0 0c-1.504 0-2.722-.234-2.722-.522 0-.289 1.218-.522 2.722-.522 1.503 0 2.722.233 2.722.522C2.722-.234 1.503 0 0 0" style="fill:#002147;fill-opacity:1;fill-rule:nonzero;stroke:none"/>
    <path id="reuse-1" d="M0 0a.542.542 0 1 0-1.084 0A.542.542 0 0 0 0 0" style="fill:#002147;fill-opacity:1;fill-rule:nonzero;stroke:none"/>
    <path id="reuse-2" d="M0 0z" style="fill:#002147;fill-opacity:1;fill-rule:nonzero;stroke:none"/>
  </defs>
  <path d="M589.597 149.464H378.118v65.071h211.479v-65.071z" style="fill:transparent;fill-opacity:1;fill-rule:nonzero;stroke:none" transform="matrix(1.25 0 0 -1.25 -472.647 268.169)"/>
  <path d="M0 0c0 5.484-2.658 9.31-7.143 9.31-4.876 0-7.15-4.595-7.15-9.31 0-5.481 2.661-9.304 7.15-9.304C-2.269-9.304 0-4.71 0 0m3.327.109c0-6.031-4.654-10.41-10.47-10.41-5.929 0-10.473 4.428-10.473 10.194 0 6.035 4.654 10.414 10.473 10.414 5.928 0 10.47-4.434 10.47-10.198" style="fill:#002147;fill-opacity:1;fill-rule:nonzero;stroke:none" transform="matrix(1.25 0 0 -1.25 103.544 50.858)"/>
  <path d="M0 0c0 5.484-2.661 9.31-7.146 9.31-4.876 0-7.147-4.595-7.147-9.31 0-5.481 2.659-9.304 7.147-9.304C-2.273-9.304 0-4.71 0 0m3.324.109c0-6.031-4.655-10.41-10.47-10.41-5.93 0-10.473 4.428-10.473 10.194 0 6.035 4.655 10.414 10.473 10.414 5.927 0 10.47-4.434 10.47-10.198" style="fill:#002147;fill-opacity:1;fill-rule:nonzero;stroke:none" transform="matrix(1.25 0 0 -1.25 183.465 50.858)"/>
  <path d="M0 0c-1.165 1.662-1.609 2.268-3.048 2.268H-4.6v-6.759c0-.555.222-.827.833-.94l2.27-.498v-.724h-8.92v.724l2.051.498c.608.163.83.385.83.94v15.623c0 .556-.222.776-.83.941l-2.051.499v.723h8.698c1.831 0 3.104-.168 4.156-.553 2.161-.834 3.379-2.887 3.379-4.821 0-2.441-1.828-4.494-4.875-5.206v-.111c.61-.282.942-.668 3.103-3.498l2.714-3.597c.388-.555.887-.884 1.497-.998l1.994-.44v-.724H5.485c-.554 0-.831.169-1.33.836L0 0zm-4.6 3.212h2.494c3.768 0 4.6 2.377 4.6 4.652 0 1.718-.777 3.325-2.55 4.099-.941.389-1.829.389-3.047.389H-4.6v-9.14z" style="fill:#002147;fill-opacity:1;fill-rule:nonzero;stroke:none" transform="matrix(1.25 0 0 -1.25 203.48 55.006)"/>
  <path d="M0 0h.832v-6.65H0l-.499 1.993c-.167.724-.609.999-1.274.999h-4.821v-7.313c0-.554.222-.827.832-.94l2.271-.498v-.724h-8.919v.724l2.05.498c.609.163.832.386.832.94V4.653c0 .555-.223.775-.832.94l-2.05.5v.722H2.659V1.824h-.831L.887 4.82c-.222.773-.555 1.052-1.22 1.052h-6.261v-8.586h4.821c.665 0 1.052.273 1.274.997L0 0z" style="fill:#002147;fill-opacity:1;fill-rule:nonzero;stroke:none" transform="matrix(1.25 0 0 -1.25 154.656 46.906)"/>
  <path d="M0 0v-17.172c0-.724.165-.893.887-.893h2.436c2.328 0 4.045.338 5.264 1.222 2.05 1.494 2.992 4.209 2.992 7.646 0 3.379-.942 6.7-3.711 8.308C6.705-.222 5.208 0 2.88 0H0zm-5.819-19.005v.724l2.051.498c.61.163.831.386.831.94v15.624c0 .555-.221.775-.831.94L-5.819.22v.723h9.365c2.548 0 4.376-.333 5.873-.998 3.767-1.718 5.485-5.429 5.485-9.085 0-3.551-1.33-6.871-4.709-8.643-1.551-.836-3.713-1.222-6.537-1.222h-9.477z" style="fill:#002147;fill-opacity:1;fill-rule:nonzero;stroke:none" transform="matrix(1.25 0 0 -1.25 225.57 39.566)"/>
  <path d="M0 0v-.724h-7.036V0l1.77.441c.668.17 1.109.386 1.552.884l6.095 7.646-6.095 8.091c-.387.555-.884.83-1.496.997l-1.662.442v.723h8.754v-.723L0 18.115c-.666-.113-.5-.388-.169-.833l4.488-6.426h.111l4.599 6.426c.333.445.445.61-.166.777l-1.773.442v.723h7.036v-.723l-1.773-.442c-.663-.167-1.107-.386-1.552-.885L5.04 9.912l6.426-8.474c.39-.554.887-.827 1.496-.997L14.626 0v-.724H5.872V0l1.883.385c.666.113.554.329.222.781L3.101 8.035h-.11L-1.94 1.213c-.333-.442-.444-.602.166-.772L0 0z" style="fill:#002147;fill-opacity:1;fill-rule:nonzero;stroke:none" transform="matrix(1.25 0 0 -1.25 117.468 62.417)"/>
  <path d="M0 0c-.551-.551-1.377-.918-2.531-.918-1.005 0-1.936.316-2.567.947-.861.86-.821 1.958-.821 3.131v5.548h1.131v-5.96c0-.754-.023-1.489.56-2.071.404-.404 1.025-.622 1.741-.622.699 0 1.261.241 1.61.592.648.647.607 1.354.607 3.061v5H.845V4.002C.845 2.213.917.917 0 0" style="fill:#002147;fill-opacity:1;fill-rule:nonzero;stroke:none" transform="matrix(1.25 0 0 -1.25 91.234 26.654)"/>
  <path d="m0 0-4.552 7.745L-4.523 0h-1.04v9.449h1.159L.165 1.661.136 9.449h1.041V0H0z" style="fill:#002147;fill-opacity:1;fill-rule:nonzero;stroke:none" transform="matrix(1.25 0 0 -1.25 103.785 27.58)"/>
  <path d="M466.262 201.92h1.137v-9.448h-1.137v9.448z" style="fill:#002147;fill-opacity:1;fill-rule:nonzero;stroke:none" transform="matrix(1.25 0 0 -1.25 -472.647 268.169)"/>
  <path d="M0 0h-1.302l-3.257 9.448h1.185l2.755-8.341 2.838 8.341h1.1L0 0z" style="fill:#002147;fill-opacity:1;fill-rule:nonzero;stroke:none" transform="matrix(1.25 0 0 -1.25 120.436 27.579)"/>
  <path d="M0 0v9.448h5.137v-.942H1.114V5.388h3.777v-.919H1.114V.97h4.135V0H0z" style="fill:#002147;fill-opacity:1;fill-rule:nonzero;stroke:none" transform="matrix(1.25 0 0 -1.25 127.8 27.579)"/>
  <path d="m0 0-1.085 2.449c-.672 1.506-.979 1.661-2.349 1.661h-.658V0h-1.115v9.448h2.039c1.26 0 2.211.008 2.954-.735.473-.473.737-1.101.737-1.889 0-.657-.191-1.203-.586-1.624a2.525 2.525 0 0 0-1.515-.745c.332-.019.607-.199.785-.378.258-.256.445-.646.722-1.264L1.184 0H0zm-1.032 8.026c-.541.542-1.244.517-2.014.517h-1.046V5.014h.375c.954 0 1.981-.049 2.629.599.313.313.488.752.488 1.231 0 .532-.209.959-.432 1.182" style="fill:#002147;fill-opacity:1;fill-rule:nonzero;stroke:none" transform="matrix(1.25 0 0 -1.25 144.63 27.579)"/>
  <path d="M506.042 201.92h1.137v-9.448h-1.137v9.448z" style="fill:#002147;fill-opacity:1;fill-rule:nonzero;stroke:none" transform="matrix(1.25 0 0 -1.25 -472.647 268.169)"/>
  <path d="M0 0v-8.506h-1.135V0h-2.81v.942H2.8V0H0z" style="fill:#002147;fill-opacity:1;fill-rule:nonzero;stroke:none" transform="matrix(1.25 0 0 -1.25 169.434 16.946)"/>
  <path d="M0 0v-3.734h-1.122V0l-2.999 5.714h1.299l2.328-4.431 2.262 4.431h1.231L0 0z" style="fill:#002147;fill-opacity:1;fill-rule:nonzero;stroke:none" transform="matrix(1.25 0 0 -1.25 179.732 22.911)"/>
  <path d="M0 0c-2.445 0-4.233 2.02-4.233 4.86 0 2.918 1.769 4.945 4.321 4.945 2.472 0 4.219-2.006 4.219-4.858C4.307 2.022 2.557 0 0 0m-.004 8.84c-1.851 0-3.053-1.564-3.053-3.92C-3.057 2.572-1.718.974.057.974c1.975 0 3.074 1.68 3.074 4.02C3.131 7.3 1.833 8.84-.004 8.84" style="fill:#002147;fill-opacity:1;fill-rule:nonzero;stroke:none" transform="matrix(1.25 0 0 -1.25 196.734 27.802)"/>
  <path d="M0 0v-3.118h3.653v-.919H0v-4.469h-1.128V.942H3.89V0H0z" style="fill:#002147;fill-opacity:1;fill-rule:nonzero;stroke:none" transform="matrix(1.25 0 0 -1.25 207.41 16.946)"/>
  <path d="M0 0c0 1.452 1.168 2.485 2.875 2.485 1.728 0 2.557-.892 2.641-.984L4.962.83c-.212.163-.968.719-2.013.719-1.205 0-1.872-.63-1.872-1.485 0-.414.169-.712.442-.957.324-.29.797-.505 1.306-.74.634-.291 1.502-.618 2.084-1.222.402-.417.706-.96.706-1.705 0-1.571-1.09-2.768-3.051-2.768-1.672 0-2.726.921-2.825 1.013l.52.766c.268-.199 1.318-.82 2.277-.82 1.422 0 1.954.779 1.954 1.717 0 .437-.198.788-.493 1.07-.441.424-1.108.709-1.747 1.001-.635.29-1.246.594-1.679 1.049C.285-1.233 0-.743 0 0" style="fill:#002147;fill-opacity:1;fill-rule:nonzero;stroke:none" transform="matrix(1.25 0 0 -1.25 148.972 18.65)"/>
  <path d="M0 0c0 .835-.283 1.51-.895 1.869-.383.225-.902.299-1.542.299h-4.658v-9.403h5.069c1.169 0 1.856-.263 1.915-1.311H0V0z" style="fill:#002147;fill-opacity:1;fill-rule:nonzero;stroke:none" transform="matrix(1.25 0 0 -1.25 40.429 31.782)"/>
  <path d="M0 0c0 .835.283 1.51.895 1.869.384.225.903.299 1.544.299h4.689v-9.403H2.027C.859-7.235.172-7.498.112-8.546H0V0z" style="fill:#002147;fill-opacity:1;fill-rule:nonzero;stroke:none" transform="matrix(1.25 0 0 -1.25 41.242 31.782)"/>
  <path d="M0 0v-9.941h-7.208l-.082-.203c-.125-.31-.35-.597-1.136-.597-.786 0-1.01.287-1.136.597l-.082.203h-7.189V0h-.65v-.303l-.624.192a.59.59 0 0 1-1.157-.166c0-.328.266-.593.592-.593.143 0 .272.053.374.137l.815-.25v-.799l-.612.11a.592.592 0 1 1-.116-.64l.728-.131v-.814l-.64.028a.59.59 0 0 1-1.098-.303.592.592 0 0 1 1.071-.347l.667-.029v-.885l-.654-.024a.593.593 0 1 1-.481-.935c.214 0 .4.115.504.285l.631.023v-.816l-.715-.123a.59.59 0 0 1-1.023-.404.593.593 0 0 1 1.135-.236l.603.103v-.801l-.782-.238a.589.589 0 0 1-.967-.455.592.592 0 0 1 1.158-.167l.591.181v-.775l-.864-.373a.593.593 0 1 1 .257-.597l.607.262v-.708h7.438c.303-.527.826-.8 1.619-.8s1.317.273 1.618.8H.65V0H0z" style="fill:#002147;fill-opacity:1;fill-rule:nonzero;stroke:none" transform="matrix(1.25 0 0 -1.25 51.378 29.94)"/>
  <use xlink:href="#reuse-0" style="fill:#002147;fill-opacity:1;fill-rule:nonzero;stroke:none" transform="matrix(1.25 0 0 -1.25 34.728 25.797)"/>
  <path d="m0 0-1.571-1.104-.013-.112.373-.168c.074-.037.074-.096.037-.132l-.987-.833-.094.008-.699 1.03c-.049.067-.031.134.054.148l.469.077v.118L-3.648.751h-.2L-5.065-.968v-.118l.47-.077c.084-.014.101-.081.053-.148l-.7-1.03-.092-.008-.923.833c-.037.036-.037.095.037.132l.374.168-.014.112L-7.497 0l-.132-.052.96-2.936c.489.219 1.609.373 2.92.379 1.313-.006 2.433-.16 2.921-.379L.133-.052 0 0z" style="fill:#002147;fill-opacity:1;fill-rule:nonzero;stroke:none" transform="matrix(1.25 0 0 -1.25 39.413 21.72)"/>
  <use xlink:href="#reuse-0" style="fill:#002147;fill-opacity:1;fill-rule:nonzero;stroke:none" transform="matrix(1.25 0 0 -1.25 40.83 50.41)"/>
  <path d="m0 0-1.571-1.105-.013-.112.373-.167c.074-.037.074-.096.037-.132l-.987-.834-.094.009-.699 1.03c-.048.067-.031.134.054.148l.469.076v.119L-3.648.751h-.2L-5.065-.968v-.119l.47-.076c.084-.014.101-.081.053-.148l-.7-1.03-.093-.009-.921.834c-.038.036-.038.095.036.132l.374.167-.014.112L-7.497 0l-.133-.052.962-2.937c.488.22 1.608.374 2.92.38 1.312-.006 2.433-.16 2.92-.38L.133-.052 0 0z" style="fill:#002147;fill-opacity:1;fill-rule:nonzero;stroke:none" transform="matrix(1.25 0 0 -1.25 45.515 46.333)"/>
  <path d="M0 0c-1.505 0-2.723-.234-2.723-.522 0-.289 1.218-.522 2.723-.522 1.502 0 2.721.233 2.721.522C2.721-.234 1.502 0 0 0" style="fill:#002147;fill-opacity:1;fill-rule:nonzero;stroke:none" transform="matrix(1.25 0 0 -1.25 46.92 25.797)"/>
  <path d="m0 0-1.571-1.104-.014-.112.374-.168c.073-.037.074-.096.036-.132l-.987-.833-.093.008-.699 1.03c-.049.067-.031.134.053.148l.469.077v.118L-3.649.751h-.199L-5.065-.968v-.118l.469-.077c.085-.014.102-.081.054-.148l-.699-1.03-.094-.008-.922.844c-.037.035-.037.095.037.132l.374.157-.014.112L-7.497 0l-.133-.052.961-2.936c.488.219 1.608.373 2.921.379 1.312-.006 2.432-.16 2.919-.379L.133-.052 0 0z" style="fill:#002147;fill-opacity:1;fill-rule:nonzero;stroke:none" transform="matrix(1.25 0 0 -1.25 51.603 21.72)"/>
  <g style="fill:transparent;fill-opacity:1">
    <path d="M0 0c0-.184.046-.22.145-.22.179 0 .359.197.359.564 0 .446-.226.57-.402.57C.054.914.027.908.013.899.002.896 0 .848 0 .796V0zm.102 1.018c.255 0 .467-.05.605-.185A.597.597 0 0 0 .885.408C.885-.108.494-.33.014-.33H-.52v.081c.151.013.168.027.168.251v.684c0 .224-.017.239-.152.251v.081h.606z" style="fill:transparent;fill-opacity:1;fill-rule:nonzero;stroke:none" transform="matrix(1.25 0 0 -1.25 32.937 32.209)"/>
  </g>
  <g style="fill:transparent;fill-opacity:1">
    <path d="M0 0c0-.376.141-.649.344-.649.179 0 .276.172.276.547C.62.315.471.545.292.545.133.545 0 .362 0 0m1.006-.035c0-.444-.303-.722-.701-.722a.664.664 0 0 0-.69.686c0 .336.224.724.719.724.379 0 .672-.278.672-.688" style="fill:transparent;fill-opacity:1;fill-rule:nonzero;stroke:none" transform="matrix(1.25 0 0 -1.25 34.75 31.714)"/>
  </g>
  <g style="fill:transparent;fill-opacity:1">
    <path d="M0 0v-.081c-.158-.015-.166-.023-.16-.241l.021-.694c.006-.23.011-.236.16-.251v-.081h-.649v.081c.155.015.161.021.159.251l-.005.73h-.009l-.4-1.039h-.112l-.38.966h-.004l-.014-.46a2.388 2.388 0 0 1 .004-.342c.008-.077.054-.096.188-.106v-.081h-.511v.081c.099.009.138.029.151.106.011.064.023.174.033.363l.022.418c.016.261-.001.284-.165.299V0h.487l.363-.821.317.821H0z" style="fill:transparent;fill-opacity:1;fill-rule:nonzero;stroke:none" transform="matrix(1.25 0 0 -1.25 38.296 30.936)"/>
  </g>
  <g style="fill:transparent;fill-opacity:1">
    <path d="M0 0c0-.224.016-.238.159-.251v-.081h-.671v.081c.143.013.16.027.16.251v.684c0 .224-.017.239-.16.251v.081h.671V.935C.016.923 0 .908 0 .684V0z" style="fill:transparent;fill-opacity:1;fill-rule:nonzero;stroke:none" transform="matrix(1.25 0 0 -1.25 39.137 32.206)"/>
  </g>
  <g style="fill:transparent;fill-opacity:1">
    <path d="M0 0h-.178l-.767.979H-.95V.597c0-.217.009-.331.017-.396.01-.073.066-.099.203-.106v-.08h-.516v.08c.091.005.145.033.156.106.008.065.016.179.016.396v.382c0 .153-.004.18-.046.238-.03.044-.082.058-.157.064v.081h.458l.69-.86h.005v.277c0 .218-.009.332-.017.396-.01.073-.067.1-.203.106v.081h.528v-.081c-.103-.004-.157-.033-.168-.106A3.376 3.376 0 0 1 0 .779V0z" style="fill:transparent;fill-opacity:1;fill-rule:nonzero;stroke:none" transform="matrix(1.25 0 0 -1.25 34.964 35.748)"/>
  </g>
  <g style="fill:transparent;fill-opacity:1">
    <path d="m0 0-.413 1.08c-.068.178-.109.189-.209.201v.081h.669v-.081l-.07-.008c-.077-.008-.077-.027-.054-.1.037-.116.201-.524.278-.727.064.176.197.572.23.669.043.127.031.15-.062.16l-.063.006v.081h.503v-.081C.69 1.267.661 1.256.58 1.067A31.477 31.477 0 0 1 .159 0H0z" style="fill:transparent;fill-opacity:1;fill-rule:nonzero;stroke:none" transform="matrix(1.25 0 0 -1.25 36.014 35.748)"/>
  </g>
  <g style="fill:transparent;fill-opacity:1">
    <path d="M0 0c.043-.12.165-.35.369-.35.108 0 .191.07.191.205 0 .122-.081.191-.208.249L.321.118C.152.197-.041.305-.041.526c0 .235.169.426.495.426.064 0 .13-.009.191-.025.047-.013.08-.021.107-.03C.76.817.775.715.798.574L.707.56C.661.697.589.844.425.844A.177.177 0 0 1 .244.663C.244.56.326.5.458.439l.045-.02C.695.332.858.226.858-.017c0-.254-.205-.441-.526-.441a.736.736 0 0 0-.224.035 1.004 1.004 0 0 0-.13.05c-.017.095-.044.207-.069.346L0 0z" style="fill:transparent;fill-opacity:1;fill-rule:nonzero;stroke:none" transform="matrix(1.25 0 0 -1.25 37.183 35.196)"/>
  </g>
  <g style="fill:transparent;fill-opacity:1">
    <path d="M0 0c0-.224.016-.238.16-.251v-.081h-.672v.081c.143.013.16.027.16.251v.684c0 .224-.017.239-.16.251v.081H.16V.935C.016.923 0 .908 0 .684V0z" style="fill:transparent;fill-opacity:1;fill-rule:nonzero;stroke:none" transform="matrix(1.25 0 0 -1.25 33.812 38.425)"/>
  </g>
  <g style="fill:transparent;fill-opacity:1">
    <path d="M0 0c0-.108.004-.159.041-.178a.34.34 0 0 1 .145-.019c.067 0 .157.006.2.06a.537.537 0 0 1 .101.205l.09-.014a5.013 5.013 0 0 0-.075-.359H-.526v.081c.157.013.174.027.174.251v.684c0 .224-.017.238-.156.251v.081h.674V.962C.017.949 0 .935 0 .711V0z" style="fill:transparent;fill-opacity:1;fill-rule:nonzero;stroke:none" transform="matrix(1.25 0 0 -1.25 34.838 38.458)"/>
  </g>
  <g style="fill:transparent;fill-opacity:1">
    <path d="M0 0c0-.108.004-.159.041-.178a.336.336 0 0 1 .145-.019c.067 0 .156.006.199.06a.523.523 0 0 1 .101.205l.09-.014a4.518 4.518 0 0 0-.075-.359H-.527v.081c.158.013.174.027.174.251v.684c0 .224-.016.238-.155.251v.081h.673V.962C.016.949 0 .935 0 .711V0z" style="fill:transparent;fill-opacity:1;fill-rule:nonzero;stroke:none" transform="matrix(1.25 0 0 -1.25 36.284 38.458)"/>
  </g>
  <g style="fill:transparent;fill-opacity:1">
    <path d="m0 0-.412 1.08c-.069.178-.111.189-.21.201v.081h.67v-.081l-.071-.008c-.077-.008-.077-.027-.053-.1.037-.116.201-.524.277-.727.064.176.197.572.23.669.044.127.032.15-.062.16l-.062.006v.081h.501v-.081C.69 1.267.661 1.256.58 1.067A32.308 32.308 0 0 1 .16 0H0z" style="fill:transparent;fill-opacity:1;fill-rule:nonzero;stroke:none" transform="matrix(1.25 0 0 -1.25 37.522 38.857)"/>
  </g>
  <g style="fill:transparent;fill-opacity:1">
    <path d="M0 0v-.081c-.158-.015-.166-.023-.16-.241l.021-.694c.006-.23.011-.236.16-.251v-.081h-.649v.081c.155.015.161.021.159.251l-.006.73h-.008l-.401-1.039h-.111l-.379.966h-.004l-.015-.46a2.388 2.388 0 0 1 .004-.342c.008-.077.053-.096.188-.106v-.081h-.511v.081c.099.009.138.029.151.106.011.064.023.174.033.363l.022.418c.016.261-.001.284-.165.299V0h.487l.363-.821.317.821H0z" style="fill:transparent;fill-opacity:1;fill-rule:nonzero;stroke:none" transform="matrix(1.25 0 0 -1.25 44.482 30.936)"/>
  </g>
  <g style="fill:transparent;fill-opacity:1">
    <path d="M0 0c0-.224.017-.238.16-.251v-.081h-.672v.081c.143.013.16.027.16.251v.684c0 .224-.017.239-.16.251v.081H.16V.935C.017.923 0 .908 0 .684V0z" style="fill:transparent;fill-opacity:1;fill-rule:nonzero;stroke:none" transform="matrix(1.25 0 0 -1.25 45.323 32.206)"/>
  </g>
  <g style="fill:transparent;fill-opacity:1">
    <path d="M0 0h-.178l-.767.979h-.004V.597c0-.217.008-.332.017-.396.01-.073.066-.099.203-.106v-.08h-.517v.08c.091.005.146.033.156.106.008.064.017.179.017.396v.382c0 .153-.004.18-.046.238-.031.043-.083.058-.157.064v.081h.457l.691-.86h.003v.277c0 .218-.007.332-.015.396-.012.073-.067.1-.204.106v.081h.529v-.081c-.104-.004-.158-.033-.168-.106A3.288 3.288 0 0 1 0 .779V0z" style="fill:transparent;fill-opacity:1;fill-rule:nonzero;stroke:none" transform="matrix(1.25 0 0 -1.25 47.25 32.639)"/>
  </g>
  <g style="fill:transparent;fill-opacity:1">
    <path d="M0 0h.265L.134.396H.128L0 0zm.262-.45.063.009c.077.01.081.031.054.105l-.075.212h-.34l-.062-.199c-.027-.09-.027-.11.068-.121L.03-.45v-.081h-.483v.081c.107.015.138.023.206.197L.168.819.31.848.452.456C.54.209.629-.035.708-.247c.067-.18.104-.19.206-.203v-.081H.262v.081z" style="fill:transparent;fill-opacity:1;fill-rule:nonzero;stroke:none" transform="matrix(1.25 0 0 -1.25 48.006 31.958)"/>
  </g>
  <g style="fill:transparent;fill-opacity:1">
    <path d="M0 0c0-.224.016-.238.19-.251v-.081h-.725v.081c.165.013.182.027.182.251v.908h-.035c-.139 0-.195-.025-.228-.063A.495.495 0 0 1-.692.644H-.78c.008.175.021.318.025.423h.064c.031-.047.053-.051.108-.051h.827c.055 0 .064.012.097.051h.065C.408.98.418.804.429.651L.337.644C.307.769.284.823.253.858.217.896.148.908.049.908H0V0z" style="fill:transparent;fill-opacity:1;fill-rule:nonzero;stroke:none" transform="matrix(1.25 0 0 -1.25 44.461 35.315)"/>
  </g>
  <g style="fill:transparent;fill-opacity:1">
    <path d="M0 0c0-.224.017-.238.159-.251v-.081h-.671v.081c.143.013.16.027.16.251v.684c0 .224-.017.238-.16.251v.081h.671V.935C.017.922 0 .908 0 .684V0z" style="fill:transparent;fill-opacity:1;fill-rule:nonzero;stroke:none" transform="matrix(1.25 0 0 -1.25 45.818 35.315)"/>
  </g>
  <g style="fill:transparent;fill-opacity:1">
    <path d="M0 0c0-.376.141-.649.344-.649.179 0 .276.172.276.547C.62.315.471.545.292.545.133.545 0 .362 0 0m1.006-.036c0-.443-.303-.721-.701-.721a.664.664 0 0 0-.69.686c0 .336.223.724.719.724.379 0 .672-.278.672-.689" style="fill:transparent;fill-opacity:1;fill-rule:nonzero;stroke:none" transform="matrix(1.25 0 0 -1.25 46.715 34.823)"/>
  </g>
  <g style="fill:transparent;fill-opacity:1">
    <path d="M0 0v-.081c-.158-.014-.166-.023-.16-.24l.021-.695c.006-.23.01-.236.159-.251v-.08h-.648v.08c.155.015.162.021.159.251l-.006.73h-.008l-.4-1.039h-.112l-.379.966h-.005l-.014-.46a2.246 2.246 0 0 1 .004-.342c.008-.076.053-.095.189-.106v-.08h-.513v.08c.1.009.14.03.152.106.011.065.023.174.033.363l.022.419c.015.261 0 .284-.165.298V0h.487l.363-.821.317.821H0z" style="fill:transparent;fill-opacity:1;fill-rule:nonzero;stroke:none" transform="matrix(1.25 0 0 -1.25 45.226 37.155)"/>
  </g>
  <g style="fill:transparent;fill-opacity:1">
    <path d="M0 0c0 .224-.017.238-.155.251v.081h.982L.85-.01.759-.017C.738.085.715.143.682.176.649.211.58.224.471.224H.435c-.078 0-.083 0-.083-.073v-.4h.104c.178 0 .185.013.206.17h.09v-.489h-.09c-.021.182-.028.195-.206.195H.352v-.338c0-.108.005-.159.042-.178a.338.338 0 0 1 .145-.019c.083 0 .175.012.22.062a.597.597 0 0 1 .102.214l.09-.015a2.541 2.541 0 0 0-.072-.369H-.176v.081c.159.013.176.027.176.251V0z" style="fill:transparent;fill-opacity:1;fill-rule:nonzero;stroke:none" transform="matrix(1.25 0 0 -1.25 45.627 37.57)"/>
  </g>
  <g style="fill:transparent;fill-opacity:1">
    <path d="M0 0h.266L.135.396H.128L0 0zm.264-.45.062.009c.076.01.081.031.054.105l-.076.212h-.339l-.063-.199c-.027-.09-.027-.11.069-.121L.03-.45v-.081h-.481v.081c.104.014.137.023.204.197L.168.819l.144.029.139-.392C.541.209.63-.035.709-.247c.067-.18.104-.19.205-.203v-.081h-.65v.081z" style="fill:transparent;fill-opacity:1;fill-rule:nonzero;stroke:none" transform="matrix(1.25 0 0 -1.25 47.397 38.176)"/>
  </g>
  <use xlink:href="#reuse-1" style="fill:#002147;fill-opacity:1;fill-rule:nonzero;stroke:none" transform="matrix(1.25 0 0 -1.25 38.494 59.685)"/>
  <use xlink:href="#reuse-1" style="fill:#002147;fill-opacity:1;fill-rule:nonzero;stroke:none" transform="matrix(1.25 0 0 -1.25 45.366 60.812)"/>
  <use xlink:href="#reuse-2" style="fill:#002147;fill-opacity:1;fill-rule:nonzero;stroke:none" transform="matrix(1.25 0 0 -1.25 19.033 22.732)"/>
  <use xlink:href="#reuse-2" style="fill:#002147;fill-opacity:1;fill-rule:nonzero;stroke:none" transform="matrix(1.25 0 0 -1.25 47.506 10.486)"/>
  <use xlink:href="#reuse-2" style="fill:#002147;fill-opacity:1;fill-rule:nonzero;stroke:none" transform="matrix(1.25 0 0 -1.25 58.44 23.95)"/>
  <use xlink:href="#reuse-2" style="fill:#002147;fill-opacity:1;fill-rule:nonzero;stroke:none" transform="matrix(1.25 0 0 -1.25 63.71 45.988)"/>
  <path d="M0 0a.543.543 0 1 0-1.085.001A.543.543 0 0 0 0 0" style="fill:#002147;fill-opacity:1;fill-rule:nonzero;stroke:none" transform="matrix(1.25 0 0 -1.25 41.482 11.84)"/>
  <path d="M0 0a.544.544 0 0 0-1.084.046A.542.542 0 0 0 0 0" style="fill:#002147;fill-opacity:1;fill-rule:nonzero;stroke:none" transform="matrix(1.25 0 0 -1.25 57.608 18.184)"/>
  <path d="M0 0c.208-.3.314-.621.313-.953-.001-.379-.127-.686-.805-1.155l-1.957-1.395-.361.518 2.038 1.451c.346.239.493.414.494.687a.973.973 0 0 1-.189.544c-.196.282-.448.373-.669.373-.202 0-.418-.141-.804-.41l-1.841-1.249-.353.509L-2.383.107c.488.342.876.577 1.237.576C-.62.682-.236.34 0 0" style="fill:#002147;fill-opacity:1;fill-rule:nonzero;stroke:none" transform="matrix(1.25 0 0 -1.25 23.623 47.27)"/>
  <path d="m0 0 3.724 1.306.206-.564-2.131-2.603L4.492-.796l.201-.55L1.011-2.76l-.206.564L2.947.411.2-.55 0 0z" style="fill:#002147;fill-opacity:1;fill-rule:nonzero;stroke:none" transform="matrix(1.25 0 0 -1.25 15.804 42.494)"/>
  <path d="m0 0 3.898.578.093-.624L.093-.624 0 0z" style="fill:#002147;fill-opacity:1;fill-rule:nonzero;stroke:none" transform="matrix(1.25 0 0 -1.25 15.107 38.787)"/>
  <path d="m0 0 .015.654L3.906-.927l-.028-.649-3.995-1.191.004.655 3.24.908L0 0z" style="fill:#002147;fill-opacity:1;fill-rule:nonzero;stroke:none" transform="matrix(1.25 0 0 -1.25 14.963 32.912)"/>
  <path d="M0 0c.231.42.396.579.64.578a.666.666 0 0 0 .622-.45.553.553 0 0 0 .023-.17c-.002-.234-.132-.47-.269-.716L.935-.904l-1.11.597L0 0zm.701 1.194C.144 1.193-.114.874-.469.232l-.463-.829L2.54-2.481l.299.542-1.442.788.084.155c.243.44.327.506.946.454l1.124-.1.321.583-1.295.11c-.261.024-.466.044-.632-.005a.674.674 0 0 1-.187-.095c.015.07.042.139.043.21 0 .111-.015.221-.049.321-.075.232-.24.419-.49.557a1.135 1.135 0 0 1-.561.155" style="fill:#002147;fill-opacity:1;fill-rule:nonzero;stroke:none" transform="matrix(1.25 0 0 -1.25 18.533 23.384)"/>
  <path d="m0 0 .502.382L2.893-2.75l-.502-.382L0 0z" style="fill:#002147;fill-opacity:1;fill-rule:nonzero;stroke:none" transform="matrix(1.25 0 0 -1.25 24.8 14.93)"/>
  <path d="m0 0 2.55 1.327.248-.478-.992-.517 1.571-3.017-.559-.291L1.246.041l-.997-.52L0 0z" style="fill:#002147;fill-opacity:1;fill-rule:nonzero;stroke:none" transform="matrix(1.25 0 0 -1.25 27.506 13.01)"/>
  <path d="m0 0 .665.185L.13-2.451l.433-1.497-.601-.173-.423 1.485-1.872 1.953.648.188 1.346-1.403L0 0z" style="fill:#002147;fill-opacity:1;fill-rule:nonzero;stroke:none" transform="matrix(1.25 0 0 -1.25 35.455 9.852)"/>
  <path d="m0 0 2.001 3.395 1.883-1.109-.274-.465-1.345.793-.553-.94L2.977.929 2.71.474l-1.265.746L.539-.318 0 0z" style="fill:#002147;fill-opacity:1;fill-rule:nonzero;stroke:none" transform="matrix(1.25 0 0 -1.25 50.486 16.587)"/>
  <path d="m0 0 1.435 1.717.223-.68L.59-.185l1.587-.357.21-.64-2.171.525-1.542-1.848-.219.668L-.382-.48l-1.74.397-.212.646L0 0z" style="fill:#002147;fill-opacity:1;fill-rule:nonzero;stroke:none" transform="matrix(1.25 0 0 -1.25 63.142 27.56)"/>
  <path d="m0 0 3.928.32.178-2.178-.538-.044-.126 1.555-1.087-.088.119-1.464-.525-.043-.12 1.464L.051-.623 0 0z" style="fill:#002147;fill-opacity:1;fill-rule:nonzero;stroke:none" transform="matrix(1.25 0 0 -1.25 61.735 32.4)"/>
  <path d="M0 0c-.768 0-1.664.418-1.664 1.192 0 .28.097.657.444.909.233.17.537.26.878.26.391 0 1.096-.11 1.466-.62a.993.993 0 0 0 .191-.597A1.1 1.1 0 0 0 .869.249C.64.083.338 0 0 0m-.311 3.003c-.455 0-.874-.123-1.205-.363-.594-.431-.702-1.051-.702-1.413 0-1.332 1.251-1.865 2.191-1.865.452 0 .865.123 1.191.359.664.48.7 1.203.7 1.435 0 1.163-1.068 1.847-2.175 1.847" style="fill:#002147;fill-opacity:1;fill-rule:nonzero;stroke:none" transform="matrix(1.25 0 0 -1.25 64.294 40.546)"/>
  <path d="M0 0a1.01 1.01 0 0 0-.893.496 1.042 1.042 0 0 0-.168.561c-.003.446.28.903.797 1.231.342.217.678.324.978.323.38 0 .689-.167.895-.493.122-.192.178-.396.178-.6 0-.435-.276-.862-.775-1.178C.662.118.309 0 0 0m.614 3.211c-.399 0-.823-.127-1.232-.386-.757-.481-1.033-1.169-1.033-1.67 0-.326.089-.645.275-.938A1.713 1.713 0 0 1 .101-.606c.407.002.836.137 1.24.394.488.309 1.031.883 1.031 1.661 0 .323-.092.641-.279.935a1.717 1.717 0 0 1-1.479.827" style="fill:#002147;fill-opacity:1;fill-rule:nonzero;stroke:none" transform="matrix(1.25 0 0 -1.25 60.28 24.407)"/>
  <path d="M0 0c-.286 0-.698.14-.928.56a1.473 1.473 0 0 0-.161.707c0 .706.47 1.696 1.329 1.696.482 0 1.088-.359 1.088-1.25C1.328 1.145.927 0 0 0m.202 3.515c-.821 0-1.536-.553-1.825-1.536a2.338 2.338 0 0 1-.104-.643c0-.394.066-.706.228-1C-1.135-.331-.468-.558.039-.558c.287 0 .563.065.816.204C1.52.009 1.959.853 1.959 1.661c0 .35-.068.681-.224.963-.32.582-.912.891-1.533.891" style="fill:#002147;fill-opacity:1;fill-rule:nonzero;stroke:none" transform="matrix(1.25 0 0 -1.25 47.354 14.642)"/>
  <path d="m0 0 .529-.15-.597-2.164-3.814 1.045.651 2.19.519-.146-.479-1.578 1.052-.288.405 1.433.508-.144-.404-1.429 1.189-.327L0 0z" style="fill:#002147;fill-opacity:1;fill-rule:nonzero;stroke:none" transform="matrix(1.25 0 0 -1.25 20.322 28.113)"/>
  <path d="M0 0c.547.614 1.107.571 1.107.571l.096-.52S.771.037.433-.341C.286-.506.212-.678.212-.833c0-.128.05-.24.15-.329.273-.243.739.027 1.031.144.225.093.544.223.863.223.238 0 .484-.068.709-.268.262-.235.394-.529.394-.838 0-.334-.13-.632-.392-.925a1.97 1.97 0 0 0-1.179-.624l-.134.527c.399.092.7.245.883.45a.774.774 0 0 1 .214.5.524.524 0 0 1-.184.396.493.493 0 0 1-.348.117c-.254 0-.557-.146-.807-.25-.479-.197-.984-.357-1.436.047a.989.989 0 0 0-.352.751c0 .303.12.625.376.912" style="fill:#002147;fill-opacity:1;fill-rule:nonzero;stroke:none" transform="matrix(1.25 0 0 -1.25 21.573 17.821)"/>
  <path d="M0 0c-.177 0-.479.102-.593.395a.601.601 0 0 0-.04.227c.002.216.104.441.21.676l.066.152L.78.939.654.635C.442.154.304.001 0 0m-2.327 2.337 1.491-.674-.075-.168c-.203-.458-.28-.533-.901-.535L-2.941.959l-.268-.608 1.3.004c.264-.001.468-.001.629.061a.66.66 0 0 1 .166.097c-.004-.033-.015-.066-.015-.1a1.006 1.006 0 0 1 .08-.414c.178-.416.662-.62 1.018-.619.627 0 .867.375 1.172 1.066l.366.844-3.583 1.614-.251-.567z" style="fill:#002147;fill-opacity:1;fill-rule:nonzero;stroke:none" transform="matrix(1.25 0 0 -1.25 63.334 46.088)"/>
  <path d="M0 0c-.313 0-.607.121-.913.365-.31.247-.639.633-.639 1.126 0 .342.186.669.472 1.027l.261.326 2.251-1.796-.173-.215C.842.309.556 0 0 0m-1.404 2.967c-.409-.512-.719-.969-.719-1.56 0-.501.228-1.073.804-1.533.382-.304.814-.47 1.26-.47.548 0 .987.165 1.67 1.021l.623.782-3.08 2.459-.558-.699z" style="fill:#002147;fill-opacity:1;fill-rule:nonzero;stroke:none" transform="matrix(1.25 0 0 -1.25 59.587 51.535)"/>
  <path d="M0 0c-3.668-1.297-7.091-1.208-10.011-.556.095 1.304.635 2.698 1.461 2.957C-2.119 4.396 2.565 10.392 2.565 17.46c0 8.693-7.085 15.765-15.794 15.765-8.71 0-15.795-7.072-15.795-15.765 0-4.836 2.259-9.43 6.061-12.408a5.349 5.349 0 0 1-2.23-1.838c-.288.197-.566.4-.823.611l-.144-.144c.172-.208.439-.482.759-.789A5.234 5.234 0 0 1-26.14.208c0-.153.01-.304.023-.452a21.89 21.89 0 0 0-9.021 17.704c0 12.079 9.829 21.907 21.909 21.907 12.08 0 21.908-9.828 21.908-21.907C8.679 10.541 5.516 4.184 0 0m-12.71-5.171c-3.027 0-6.805 1.029-9.401 2.56-.786.464-1.724 1.328-1.724 2.802 0 .399.078.779.216 1.128.969-.801 1.971-1.552 2.599-1.895.144-.08.228-.118.396-.118a.73.73 0 0 1 .73.733c0 .309-.168.56-.445.681-.537.235-1.66.699-2.87 1.326a3.047 3.047 0 0 0 3.732.929l.829-.483C-16.01.88-9.223-3.252-1.029-.981c-3.11-2.807-6.941-4.19-11.681-4.19m2.595-1.844c-.832 0-1.515-.589-1.515-1.493 0-.885.692-1.493 1.515-1.493.125 0 .245.021.361.051-.174-1.252-1.632-2.653-3.513-3.283-1.866.625-3.323 2.036-3.516 3.282.115-.03.234-.05.359-.05.897 0 1.515.628 1.515 1.493 0 .824-.648 1.471-1.483 1.489.255.466.5.961.68 1.492a17.81 17.81 0 0 1 3.002-.278c.778 0 1.533.043 2.27.117.098-.427.243-.873.413-1.334-.029.001-.058.007-.088.007M-20.824 4.87a4.676 4.676 0 0 0 3.869-2.079c-.748.19-1.483.437-2.199.742l-.003-.004-.023.013a3.717 3.717 0 0 1-1.596.356 3.723 3.723 0 0 1-3.016-1.539 19.27 19.27 0 0 0-.851.499 4.642 4.642 0 0 0 3.819 2.012m6.166-3.108a1.702 1.702 0 0 1-.458-.504c-.571.278-1.289.635-1.758.898.664-.147 1.532-.333 2.216-.394m4.795.297c-.453-.647-.723-1.547-.805-2.458-1.431.369-2.73.865-3.863 1.382.215.417.832.712 1.302.712 1.155 0 2.28.128 3.366.364m-3.366.27a15.2 15.2 0 0 0-2.853.271 5.35 5.35 0 0 1-4.742 2.903c-.49 0-.962-.071-1.413-.196a15.19 15.19 0 0 0-6.119 12.153c0 8.343 6.786 15.131 15.127 15.131 8.341 0 15.127-6.788 15.127-15.131S-4.888 2.329-13.229 2.329m-7.595-6.783c-2.563 0-4.648 2.091-4.648 4.662 0 .805.205 1.563.565 2.224.239-.217.495-.442.76-.67a3.67 3.67 0 0 1-.355-1.571c0-1.397.705-2.552 2.039-3.34.766-.452 1.634-.86 2.552-1.215a4.695 4.695 0 0 0-.913-.09M9.347 17.46C9.347 29.889-.781 40-13.229 40s-22.576-10.111-22.576-22.54a22.525 22.525 0 0 1 9.851-18.618 5.318 5.318 0 0 1 5.13-3.93c.664 0 1.309.126 1.921.363a22.573 22.573 0 0 1 2.531-.674c-.24-.684-.59-1.334-.924-1.895l.019.004-.019-.011.47-.471a.83.83 0 0 0 .402.106.843.843 0 1 0 0-1.685c-.406 0-.762.26-.949.538 0 0-.109-.379-.109-.879-.004-1.619 1.764-3.469 4.215-4.249 2.449.763 4.216 2.626 4.216 4.246 0 .558-.111.882-.111.882-.188-.227-.493-.538-.953-.538a.844.844 0 0 0 0 1.685.83.83 0 0 0 .443-.129l.456.457.017-.005a11.027 11.027 0 0 0-.574 1.73C-5.714-5.067-2.289-3.349.433-.486l-.001.003C6.097 3.822 9.347 10.354 9.347 17.46" style="fill:#002147;fill-opacity:1;fill-rule:nonzero;stroke:none" transform="matrix(1.25 0 0 -1.25 57.374 57.197)"/>
</svg>
